HIERARCHY
ROOT Hips
{
	OFFSET 0.00000 0.00000 0.00000
	CHANNELS 6 Xposition Yposition Zposition Zrotation Yrotation Xrotation 
	JOINT LHipJoint
	{
		OFFSET 0 0 0
		CHANNELS 3 Zrotation Yrotation Xrotation
		JOINT LeftHip
		{
			OFFSET 1.75344 -1.53157 0.77399
			CHANNELS 3 Zrotation Yrotation Xrotation
			JOINT LeftKnee
			{
				OFFSET 2.25415 -6.19323 0.00000
				CHANNELS 3 Zrotation Yrotation Xrotation
				JOINT LeftAnkle
				{
					OFFSET 2.30342 -6.32861 0.00000
					CHANNELS 3 Zrotation Yrotation Xrotation
					JOINT LeftToe
					{
						OFFSET 0.10958 -0.30108 1.49206
						CHANNELS 3 Zrotation Yrotation Xrotation
						End Site
						{
							OFFSET 0.00000 -0.00000 0.77783
						}
					}
				}
			}
		}
	}
	JOINT RHipJoint
	{
		OFFSET 0 0 0
		CHANNELS 3 Zrotation Yrotation Xrotation
		JOINT RightHip
		{
			OFFSET -1.81912 -1.53156 0.77399
			CHANNELS 3 Zrotation Yrotation Xrotation
			JOINT RightKnee
			{
				OFFSET -2.22882 -6.12365 0.00000
				CHANNELS 3 Zrotation Yrotation Xrotation
				JOINT RightAnkle
				{
					OFFSET -2.21943 -6.09785 0.00000
					CHANNELS 3 Zrotation Yrotation Xrotation
					JOINT RightToe
					{
						OFFSET -0.18931 -0.52012 1.59379
						CHANNELS 3 Zrotation Yrotation Xrotation
						End Site
						{
							OFFSET -0.00000 -0.00000 0.84686
						}
					}
				}
			}
		}
	}
	JOINT lowerback
	{
		OFFSET 0 0 0
		CHANNELS 3 Zrotation Yrotation Xrotation
		JOINT Chest
		{
			OFFSET -0.00200 1.66634 -0.14248
			CHANNELS 3 Zrotation Yrotation Xrotation
			JOINT Chest2
			{
				OFFSET -0.00875 1.64542 0.09514
				CHANNELS 3 Zrotation Yrotation Xrotation
				JOINT lowerneck
				{
					OFFSET 0 0 0
					CHANNELS 3 Zrotation Yrotation Xrotation
					JOINT Neck
					{
						OFFSET 0.02257 1.59605 0.00839
						CHANNELS 3 Zrotation Yrotation Xrotation
						JOINT Head
						{
							OFFSET -0.10214 1.57530 -0.23335
							CHANNELS 3 Zrotation Yrotation Xrotation
							End Site
							{
								OFFSET -0.03588 1.60717 -0.08062
							}
						}
					}
				}
				JOINT LeftCollar
				{
					OFFSET 0 0 0
					CHANNELS 3 Zrotation Yrotation Xrotation
					JOINT LeftShoulder
					{
						OFFSET 2.54983 1.10186 0.40078
CHANNELS 3 Zrotation Xrotation Yrotation
						JOINT LeftElbow
						{
OFFSET 0 -4.288400 0.000000
CHANNELS 3 Zrotation Xrotation Yrotation
							JOINT LeftWrist
							{
OFFSET 0 -3.065520 -0.000000
CHANNELS 3 Zrotation Xrotation Yrotation
								JOINT lhand
								{
									OFFSET 0 0 0
CHANNELS 3 Zrotation Xrotation Yrotation
									JOINT LFingers
									{
OFFSET 0 -0.753040 0.000000
CHANNELS 3 Zrotation Xrotation Yrotation
										End Site
										{
OFFSET 0 -0.607120 0.000000
										}
									}
								}
								JOINT LThumb
								{
OFFSET 0 0.000000 0.000000
CHANNELS 3 Zrotation Xrotation Yrotation
									End Site
									{
OFFSET 0 -0.616390 0.616390
									}
								}
							}
						}
					}
				}
				JOINT RightCollar
				{
					OFFSET 0 0 0
					CHANNELS 3 Zrotation Yrotation Xrotation
					JOINT RightShoulder
					{
						OFFSET -2.60909 1.35448 0.21802
CHANNELS 3 Zrotation Xrotation Yrotation
						JOINT RightElbow
						{
OFFSET 0 -4.521720 -0.000000
CHANNELS 3 Zrotation Xrotation Yrotation
							JOINT RightWrist
							{
OFFSET 0 -2.891400 0.000000
CHANNELS 3 Zrotation Xrotation Yrotation
								JOINT rhand
								{
									OFFSET 0 0 0
CHANNELS 3 Zrotation Xrotation Yrotation
									JOINT RFingers
									{
OFFSET 0 -0.680540 0.000000
CHANNELS 3 Zrotation Xrotation Yrotation
										End Site
										{
OFFSET 0 -0.548670 0.000000
										}
									}
								}
								JOINT RThumb
								{
OFFSET 0 0.000000 0.000000
CHANNELS 3 Zrotation Xrotation Yrotation
									End Site
									{
OFFSET 0 -0.557050 0.557050
									}
								}
							}
						}
					}
				}
			}
		}
	}
}
MOTION
Frames: 10
Frame Time: 0.008333333333333333
8.754800 15.061000 41.985200 -177.959000 -15.775200 177.254000 0.000000 0.000000 0.000000 -25.133400 -29.013200 0.920000 3.131200 10.904500 31.958500 1.856200 1.910900 -26.495900 2.359800 -9.578300 -27.621800 0.000000 0.000000 0.000000 31.414500 13.695000 4.464000 -1.803400 -8.444100 24.071200 -0.941800 -26.700500 -41.903300 -2.006100 -8.878800 25.417000 5.049100 1.184600 7.000800 0.243900 2.071000 -3.159100 -2.844100 0.771000 -7.089200 11.572000 18.974500 -2.170800 -7.609300 25.562300 7.864900 -2.197700 12.618700 5.128600 0.000000 -0.000000 0.000000 3.358800 11.102700 -35.160800 20.030000 -30.678500 5.546700 11.562500 14.019000 34.517600 0.000000 0.000000 0.000000 -7.125000 0.000000 0.000000 -11.592900 -4.455400 -12.712900 0.000000 -0.000000 0.000000 -5.114000 14.146400 37.568600 -22.302100 -33.316800 -6.751000 36.643200 -44.196700 62.410500 0.000000 0.000000 0.000000 7.125000 0.000000 -0.000000 -152.090900 8.954500 26.716600
8.824150 15.117814 42.072135 -178.242486 -12.203269 178.766967 0.000000 0.000000 0.000000 -23.665188 -26.706178 -0.354769 2.481010 9.802530 28.340203 1.517373 3.099810 -24.562072 2.338127 -9.537247 -27.490950 0.000000 0.000000 0.000000 30.866365 17.016683 1.350808 -2.357887 -9.573555 27.607408 -1.044276 -25.712940 -41.235860 -1.563848 -7.891388 22.384581 3.789617 2.531419 7.666292 0.306739 3.791200 -3.871097 -2.343675 1.629803 -8.171410 9.945865 18.455617 -0.342090 -7.694039 24.878236 4.147676 -2.529992 12.358813 3.449731 0.000000 0.000000 0.000000 3.570930 10.972156 -35.106657 20.035165 -30.684709 5.549277 8.061891 15.795310 34.117888 0.000000 0.000000 0.000000 -7.125000 0.000000 0.000000 -13.468162 -3.572214 -14.681273 0.000000 0.000000 0.000000 -5.565025 15.328020 43.845619 -20.029739 -30.677400 -5.546882 16.434719 -9.869123 55.186665 0.000000 0.000000 0.000000 7.125000 0.000000 0.000000 -24.071531 -11.434628 -159.189685
8.834894 15.147001 42.077455 -178.297653 -12.002034 180.033277 0.000000 0.000000 0.000000 -22.905841 -27.196234 -3.081694 2.893247 10.520226 30.678251 1.693951 2.623850 -25.650260 2.386823 -9.628334 -27.782010 0.000000 0.000000 0.000000 30.445864 17.277470 1.629417 -1.830683 -8.504192 24.256316 -0.381351 -26.611801 -39.230484 -1.508762 -7.756988 21.978785 3.530350 2.717390 6.363051 0.269239 3.938288 -4.104253 -2.189620 1.719538 -7.666941 10.318969 18.379190 0.325187 -8.550785 24.827603 3.212903 -2.907012 12.345255 3.212394 0.000000 0.000000 0.000000 3.602871 10.790224 -35.911618 20.485196 -31.222333 5.780806 6.115202 16.042596 29.750956 0.000000 0.000000 0.000000 -7.125000 0.000000 0.000000 -14.338009 0.887786 -14.581188 0.000000 0.000000 0.000000 -6.155475 16.304687 48.776587 -18.854431 -29.237319 -4.959602 -5.212260 20.970584 54.240446 0.000000 0.000000 0.000000 7.125000 0.000000 0.000000 -16.013997 -8.906382 -166.088124
8.839282 15.148251 42.090356 -178.384050 -12.117248 180.239457 0.000000 0.000000 0.000000 -22.937467 -27.546871 -3.215885 2.885284 10.506996 30.634708 1.653190 3.156447 -25.596602 2.599125 -10.008135 -29.010141 0.000000 0.000000 0.000000 30.280929 17.382840 1.395218 -1.828403 -8.499119 24.240625 -0.448926 -26.521051 -39.440792 -1.725713 -8.269592 23.536002 3.448271 2.706200 6.262474 0.229682 3.907525 -4.146795 -2.177230 1.706760 -7.658280 9.766620 18.362809 0.113431 -8.044041 24.765929 3.262944 -2.707036 12.314481 3.124548 0.000000 0.000000 0.000000 3.660665 10.776605 -35.658697 20.404101 -31.126013 5.738841 5.857430 16.223624 29.097754 0.000000 0.000000 0.000000 -7.125000 0.000000 0.000000 -14.468578 1.544911 -14.546624 0.000000 0.000000 0.000000 -6.205806 16.325967 49.097194 -18.804058 -29.174419 -4.934984 -5.631603 21.829629 53.845729 0.000000 0.000000 0.000000 7.125000 0.000000 0.000000 -15.845819 -9.192222 -166.341734
8.839232 15.144107 42.098406 -178.322980 -12.085857 180.129038 0.000000 0.000000 0.000000 -22.925015 -27.631607 -3.138756 2.900542 10.532284 30.718093 1.699993 3.086115 -25.901750 2.502739 -9.842778 -28.469188 0.000000 0.000000 0.000000 30.330335 17.237237 1.413526 -1.830267 -8.503189 24.253180 -0.474699 -26.355076 -39.357736 -1.627648 -8.042846 22.844395 3.528450 2.704615 6.325011 0.263592 3.919546 -4.043959 -2.188103 1.714300 -7.580802 9.091666 18.408282 -0.081289 -7.232762 24.769489 3.069260 -2.694740 12.336932 3.230412 0.000000 0.000000 0.000000 3.525213 10.663494 -35.111374 20.165128 -30.840772 5.615761 10.842491 14.841507 29.153028 0.000000 0.000000 0.000000 -7.125000 0.000000 0.000000 -11.591891 0.906727 -11.649835 0.000000 0.000000 0.000000 -6.284403 16.192197 49.344695 -18.851962 -29.234284 -4.958318 -4.173599 20.455960 54.768720 0.000000 0.000000 0.000000 7.125000 0.000000 0.000000 -16.421098 -8.617388 -165.604206
8.844787 15.144412 42.109592 -178.513881 -12.286889 180.194058 0.000000 0.000000 0.000000 -22.937003 -27.229856 -3.461446 2.890533 10.515719 30.663378 1.675353 2.416435 -25.425714 2.620156 -10.052265 -29.146875 0.000000 0.000000 0.000000 30.118366 17.180777 1.223429 -1.854991 -8.557343 24.420137 -0.476977 -26.437512 -39.470657 -1.687248 -8.180249 23.263705 3.273174 2.677847 6.349421 0.207486 3.857712 -4.070470 -2.099977 1.694517 -7.638819 9.132403 18.392902 -0.018276 -7.229276 24.750345 3.011759 -2.710193 12.330291 3.202821 0.000000 0.000000 0.000000 3.555629 10.665694 -34.599666 20.264141 -30.959177 5.666578 8.053483 15.789833 29.337280 0.000000 0.000000 0.000000 -7.125000 0.000000 0.000000 -13.212874 1.074117 -13.324543 0.000000 0.000000 0.000000 -6.130002 16.266768 48.905681 -18.807490 -29.178740 -4.936708 -2.813626 20.242533 54.575704 0.000000 0.000000 0.000000 7.125000 0.000000 0.000000 -16.951390 -9.063860 -165.252605
8.851116 15.146012 42.118260 -178.574244 -12.319895 180.183359 0.000000 0.000000 0.000000 -22.908641 -26.989780 -3.599522 2.879960 10.498204 30.605592 1.668995 2.119071 -25.252185 2.490297 -9.820178 -28.396431 0.000000 0.000000 0.000000 30.080942 17.292308 1.196807 -1.867900 -8.585387 24.506836 -0.503717 -26.443418 -39.605670 -1.633395 -8.056119 22.884985 3.208266 2.837817 6.397341 0.011975 4.058792 -4.008347 -2.294064 1.795948 -7.578110 9.564677 18.260653 -0.229607 -7.289760 24.563013 3.142470 -2.729149 12.235080 3.290470 0.000000 0.000000 0.000000 4.098845 10.549714 -34.889241 20.145068 -30.816699 5.605452 9.293763 15.970343 29.391027 0.000000 0.000000 0.000000 -7.125000 0.000000 0.000000 -12.500766 0.874465 -12.614478 0.000000 0.000000 0.000000 -5.508795 16.150496 48.365745 -18.731733 -29.083884 -4.899719 -5.008739 21.699550 54.172438 0.000000 0.000000 0.000000 7.125000 0.000000 0.000000 -16.094599 -9.011844 -166.047885
8.849630 15.148555 42.125937 -178.504100 -12.053593 180.053596 0.000000 0.000000 0.000000 -22.911870 -26.935867 -3.443674 2.873620 10.487633 30.570612 1.648545 2.189486 -25.132306 2.277045 -9.420713 -27.120470 0.000000 0.000000 0.000000 30.157204 17.358682 1.284030 -1.865650 -8.580488 24.491656 -0.356762 -26.665238 -39.179223 -1.764832 -8.358118 23.807088 3.150081 2.794484 6.445768 0.287040 4.013313 -3.954477 -1.968926 1.784313 -7.575415 9.271211 18.348933 0.206916 -7.871766 24.733964 3.024208 -2.641241 12.302275 2.954802 0.000000 0.000000 0.000000 3.581386 10.625114 -34.407449 20.327477 -31.034883 5.699203 6.688614 16.007826 29.001505 0.000000 0.000000 0.000000 -7.125000 0.000000 0.000000 -13.986545 1.554301 -14.030551 0.000000 0.000000 0.000000 -6.022582 16.055085 48.897281 -18.716221 -29.064449 -4.892171 -5.430832 21.610809 53.928593 0.000000 0.000000 0.000000 7.125000 0.000000 0.000000 -15.926616 -9.155471 -166.253919
8.853132 15.141113 42.132318 -178.505875 -12.223878 179.816785 0.000000 0.000000 0.000000 -23.063302 -27.066179 -3.139198 2.876991 10.493202 30.589136 1.626095 2.586298 -25.139611 2.596203 -10.010798 -29.011647 0.000000 0.000000 0.000000 30.273611 17.350583 1.592716 -1.858455 -8.564848 24.443331 -0.453323 -26.630922 -39.598563 -1.659495 -8.117376 23.071212 3.315087 3.152413 6.648169 -0.235811 4.491256 -3.835426 -2.674902 2.004980 -7.485165 10.553913 17.919956 -0.568660 -8.008274 24.117840 3.439655 -2.761526 11.988066 3.314471 0.000000 0.000000 0.000000 4.909570 10.351588 -36.375316 19.944470 -30.575278 5.503126 12.339766 14.720481 29.025313 0.000000 0.000000 0.000000 -7.125000 0.000000 0.000000 -10.709525 0.833394 -10.754839 0.000000 0.000000 0.000000 -4.499296 16.031733 47.002395 -18.540415 -28.843648 -4.807163 -6.719968 23.437390 53.948741 0.000000 0.000000 0.000000 7.125000 0.000000 0.000000 -15.415187 -8.870579 -166.640147
8.853869 15.145579 42.138830 -178.365235 -12.148072 179.864262 0.000000 0.000000 0.000000 -22.808630 -26.939225 -3.372835 2.887420 10.510557 30.646461 1.687267 2.476913 -25.537875 2.625860 -10.063125 -29.181388 0.000000 0.000000 0.000000 30.388884 17.403034 1.590251 -1.840611 -8.525883 24.323042 -0.530030 -26.335071 -39.597445 -1.757875 -8.341552 23.757008 3.574027 3.417423 6.690061 -0.596782 4.851742 -3.857871 -3.243483 2.160346 -7.458519 11.296603 17.747844 -1.271267 -7.698457 23.813259 3.929347 -2.693046 11.835380 3.591259 0.000000 0.000000 0.000000 5.837451 10.213925 -37.081518 20.292392 -30.992811 5.681236 7.429887 15.848058 28.984010 0.000000 0.000000 0.000000 -7.125000 0.000000 0.000000 -13.557232 1.483493 -13.593351 0.000000 0.000000 0.000000 -3.427274 15.887941 45.596349 -18.525032 -28.824246 -4.799705 -5.995332 22.557961 54.355781 0.000000 0.000000 0.000000 7.125000 0.000000 0.000000 -15.709107 -8.639139 -166.289075
